# xmcd CD database file
# Generated: mer nov 3 00:21:16 2004 by KSCD
# 
# Track frame offsets:
#       150
#       13582
#       21863
#       35959
#       47036
#       55098
#       68041
#       80208
#       90920
#       108457
#       123734
#       146175
#       162977
#       177071
#       189065
#       204832
#       223675
#       243049
#       250764
#       266219
#       276268
#       296264
#       315883
#
# Disc length: 4307 seconds
#
# Revision: 1
# Processed by: cddbd v1.5.1PL0 Copyright (c) Steve Scherf et al.
# Submitted via: Kscd 1.3.3
#
DISCID=4510d117
DTITLE=MORRICONE-LEONE - WEST
DYEAR=1900
DGENRE=
TTITLE0=
TTITLE1=
TTITLE2=LA RESA DEI CONTI
TTITLE3=
TTITLE4=ADDIO COLONNELLO
TTITLE5=
TTITLE6=
TTITLE7=
TTITLE8=
TTITLE9=
TTITLE10=
TTITLE11=
TTITLE12=
TTITLE13=ADDIO A CHEYENNE
TTITLE14=
TTITLE15=
TTITLE16=
TTITLE17=
TTITLE18=
TTITLE19=
TTITLE20=
TTITLE21=
TTITLE22=
EXTD=
EXTT0=
EXTT1=
EXTT2=
EXTT3=
EXTT4=
EXTT5=
EXTT6=
EXTT7=
EXTT8=
EXTT9=
EXTT10=
EXTT11=
EXTT12=
EXTT13=
EXTT14=
EXTT15=
EXTT16=
EXTT17=
EXTT18=
EXTT19=
EXTT20=
EXTT21=
EXTT22=
PLAYORDER=
